<svg width="45" height="36" viewBox="0 0 45 36" fill="none" xmlns="http://www.w3.org/2000/svg">
<path d="M32.6997 0.882568H37.5885C41.6323 0.882568 44.9219 4.24144 44.9219 8.37039V13.3623C44.9219 17.4912 41.6323 20.8501 37.5885 20.8501H32.6997C31.9148 20.8501 31.1727 20.6905 30.4632 20.4561C31.4488 26.3347 36.4411 30.8338 42.4774 30.8338C43.8286 30.8338 44.9219 31.9502 44.9219 33.3298C44.9219 34.7094 43.8286 35.8257 42.4774 35.8257C33.0433 35.8257 25.3663 27.987 25.3663 18.3541V8.37039C25.3663 4.24144 28.6559 0.882568 32.6997 0.882568ZM8.25521 0.882568H13.1441C17.1879 0.882568 20.4774 4.24144 20.4774 8.37039V13.3623C20.4774 17.4912 17.1879 20.8501 13.1441 20.8501H8.25521C7.47038 20.8501 6.72825 20.6905 6.01871 20.4561C7.00431 26.3347 11.9967 30.8338 18.033 30.8338C19.3841 30.8338 20.4774 31.9502 20.4774 33.3298C20.4774 34.7094 19.3841 35.8257 18.033 35.8257C8.5989 35.8257 0.921875 27.987 0.921875 18.3541V8.37039C0.921875 4.24144 4.21145 0.882568 8.25521 0.882568Z" fill="#DCE6F3"/>
<path d="M29.97 20.5387L29.833 19.7212L30.62 19.9813C31.2956 20.2045 31.9832 20.3501 32.6997 20.3501H37.5885C41.3464 20.3501 44.4219 17.225 44.4219 13.3623V8.37039C44.4219 4.5077 41.3464 1.38257 37.5885 1.38257H32.6997C28.9418 1.38257 25.8663 4.5077 25.8663 8.37039V18.3541C25.8663 27.7207 33.3293 35.3257 42.4774 35.3257C43.5426 35.3257 44.4219 34.4431 44.4219 33.3298C44.4219 32.2165 43.5426 31.3338 42.4774 31.3338C36.1827 31.3338 30.9936 26.644 29.97 20.5387ZM5.52559 20.5387L5.38853 19.7212L6.17558 19.9813C6.85118 20.2045 7.53879 20.3501 8.25521 20.3501H13.1441C16.9019 20.3501 19.9774 17.225 19.9774 13.3623V8.37039C19.9774 4.5077 16.9019 1.38257 13.1441 1.38257H8.25521C4.49737 1.38257 1.42188 4.5077 1.42188 8.37039V18.3541C1.42188 27.7207 8.88482 35.3257 18.033 35.3257C19.0982 35.3257 19.9774 34.4431 19.9774 33.3298C19.9774 32.2165 19.0982 31.3338 18.033 31.3338C11.7383 31.3338 6.54919 26.644 5.52559 20.5387Z" stroke="black" stroke-opacity="0.1"/>
</svg>
